<?xml version="1.0"?>
<svg xmlns="http://www.w3.org/2000/svg" xmlns:xlink="http://www.w3.org/1999/xlink" xmlns:svgjs="http://svgjs.com/svgjs" version="1.1" x="0" y="0" viewBox="0 0 483.848 483.848" style="enable-background:new 0 0 512 512" xml:space="preserve" class=""><g>
<g xmlns="http://www.w3.org/2000/svg">
	<g id="Layer_2_29_">
		<g>
			<path d="M190.273,197.094c-7.395,0-13.381,6.003-13.381,13.382c0,7.413,5.986,13.417,13.381,13.417     c7.396,0,13.361-6.004,13.361-13.417C203.634,203.097,197.668,197.094,190.273,197.094z" fill="#060363" data-original="#000000" style="" class=""/>
			<path d="M398.522,256.527c14.318-0.869,26.107-6.707,34.262-17.018c8.104-10.245,12.213-24.232,12.213-41.571     c0-19.835-5.811-36.52-16.025-47.847c-4.348-5.194-10.502-9.191-16.783-11.905c-9.625-34.785-31.16-69.312-60.117-94.306     C319.286,15.584,279.175,0,239.126,0c-39.878,0-79.158,15.663-110.606,44.104c-27.757,25.101-47.871,58.288-57.161,94.085     c0.001,0.001,0.002,0.002,0.002,0.004c-6.314,2.728-11.854,6.761-16.487,11.899c-10.215,11.327-16.024,28.012-16.024,47.847     c0,17.339,4.108,31.326,12.212,41.571c8.154,10.311,19.943,16.148,34.262,17.018c10.302,18.168,24.005,35.154,39.917,49.664     c-25.872,5.039-46.227,10.137-48.844,14.063c-3.516,5.274,3.561,21.142,12.375,36.953     c-20.594,13.675-36.697,34.923-36.697,59.179c0,42.163,0,67.461,0,67.461h189.849h189.848c0,0,0-25.298,0-67.461     c0-24.256-16.104-45.504-36.695-59.179c8.812-15.812,15.891-31.679,12.375-36.953c-2.617-3.927-22.973-9.024-48.846-14.063     C374.517,291.682,388.22,274.695,398.522,256.527z M226.874,113.456c4.595,4.649,10.491,14.743-0.314,30.916     c-0.392,0.461-0.739,0.959-1.033,1.491c-0.03,0.041-0.057,0.081-0.085,0.122c-0.004,0.005-0.022,0.057-0.053,0.144     c-0.399,0.775-0.694,1.611-0.86,2.494c-0.078,0.22-0.129,0.367-0.133,0.375c0.022,0.017,0.043,0.035,0.067,0.052     c-0.061,0.429-0.104,0.863-0.104,1.309c0,5.118,4.148,9.266,9.266,9.266c0.437,0,0.863-0.041,1.283-0.099     c0.002,0.001,0.014,0.012,0.016,0.012c34.971-5.217,53.996-32.265,63.738-54.21c2.08-4.678,6.148-4.072,8.576-0.967     c18.598,23.788,34.846,36.367,48.104,42.837c8.584,4.188,14.953,6.428,21.947,7.912l-20.131,20.128     c-4.289-3.618-9.824-5.81-15.877-5.81h-67.9c-11.209,0-20.65,7.479-23.647,17.715h-7.81h-7.81     c-2.997-10.235-12.438-17.715-23.648-17.715h-67.899c-6.053,0-11.589,2.191-15.878,5.81l-20.107-20.106     c10.039-1.685,19.63-3.818,28.678-6.246c41.924-11.248,72.344-28.666,83.337-35.532     C221.545,111.51,224.86,111.419,226.874,113.456z M325.056,207.254c0,14.396-11.701,26.112-26.133,26.112     c-14.391,0-26.09-11.682-26.09-26.112c0-14.413,11.699-26.11,26.09-26.11C313.354,181.144,325.056,192.841,325.056,207.254z      M211.012,207.254c0,14.431-11.699,26.112-26.09,26.112c-14.432,0-26.133-11.716-26.133-26.112     c0-14.413,11.701-26.11,26.133-26.11C199.313,181.144,211.012,192.841,211.012,207.254z M242.289,331.236     c-0.122,0-0.244-0.004-0.366-0.004s-0.244,0.004-0.366,0.004c-62.941,0-116.142-47.586-138.936-91.8l-3.556-6.896l-8.187,0.642     c-0.677,0.055-1.316,0.106-1.759,0.106c-17.862,0-26.919-11.895-26.919-35.351c0-7.182,1.303-29.396,16.678-37.485l39.032,39.035     v25.205c0,13.618,11.038,24.656,24.654,24.656h67.899c13.62,0,24.656-11.038,24.656-24.656v-14.232l6.802,0.002l6.801-0.002     v14.232c0,13.618,11.037,24.656,24.656,24.656h67.898c13.617,0,24.654-11.038,24.654-24.656v-25.205l39.033-39.035     c15.375,8.089,16.678,30.304,16.678,37.485c0,23.457-9.057,35.351-26.92,35.351c-0.441,0-1.082-0.052-1.758-0.106l-8.188-0.642     l-3.557,6.896C358.431,283.65,305.229,331.236,242.289,331.236z" fill="#060363" data-original="#000000" style="" class=""/>
			<path d="M280.21,210.476c0,7.413,5.967,13.417,13.361,13.417s13.381-6.004,13.381-13.417c0-7.379-5.986-13.382-13.381-13.382     S280.21,203.097,280.21,210.476z" fill="#060363" data-original="#000000" style="" class=""/>
		</g>
	</g>
</g>
<g xmlns="http://www.w3.org/2000/svg">
</g>
<g xmlns="http://www.w3.org/2000/svg">
</g>
<g xmlns="http://www.w3.org/2000/svg">
</g>
<g xmlns="http://www.w3.org/2000/svg">
</g>
<g xmlns="http://www.w3.org/2000/svg">
</g>
<g xmlns="http://www.w3.org/2000/svg">
</g>
<g xmlns="http://www.w3.org/2000/svg">
</g>
<g xmlns="http://www.w3.org/2000/svg">
</g>
<g xmlns="http://www.w3.org/2000/svg">
</g>
<g xmlns="http://www.w3.org/2000/svg">
</g>
<g xmlns="http://www.w3.org/2000/svg">
</g>
<g xmlns="http://www.w3.org/2000/svg">
</g>
<g xmlns="http://www.w3.org/2000/svg">
</g>
<g xmlns="http://www.w3.org/2000/svg">
</g>
<g xmlns="http://www.w3.org/2000/svg">
</g>
</g></svg>
