<svg xmlns="http://www.w3.org/2000/svg" xmlns:xlink="http://www.w3.org/1999/xlink" viewBox="0 0 118.09 187.34"><defs><style>.cls-1{fill:#1b1464;}.cls-2{fill:url(#White_Black);}.cls-3{fill:url(#White_Black-2);}.cls-4{fill:none;stroke:#000;}.cls-4,.cls-5{stroke-miterlimit:10;}.cls-5{fill:#736357;stroke:#1a1a1a;}</style><linearGradient id="White_Black" x1="0.5" y1="141.02" x2="117.5" y2="141.02" gradientUnits="userSpaceOnUse"><stop offset="0" stop-color="#fff"/><stop offset="1"/></linearGradient><linearGradient id="White_Black-2" x1="30.21" y1="57.61" x2="87.54" y2="57.61" xlink:href="#White_Black"/></defs><g id="layer_1" data-name="layer 1"><path class="cls-1" d="M59,.3A145.74,145.74,0,0,1,73.82,24.82c-2.68.22-5.55.56-8.56,1.05A100.67,100.67,0,0,0,41,32.8l-.3-.12A146.09,146.09,0,0,1,59,.3Z" transform="translate(0.05 0.54)"/><path class="cls-1" d="M87.54,77.84a143.41,143.41,0,0,1-.2,19.88c-4.56.35-9.44.87-14.56,1.6a184,184,0,0,0-40.67,10.44,143.94,143.94,0,0,1-1.84-19.35,191.77,191.77,0,0,1,42.29-10.9C77.82,78.74,82.84,78.2,87.54,77.84Z" transform="translate(0.05 0.54)"/><path class="cls-2" d="M82.73,124.46A84.52,84.52,0,0,1,104.5,147.3a84.84,84.84,0,0,1,13,37l-.18,0c-2.34-16.25-27.56-29-58.32-29S3,168.08.68,184.33l-.18,0a84.2,84.2,0,0,1,34.77-59.84,146.24,146.24,0,0,1-3.16-14.7A184,184,0,0,1,72.78,99.32c5.12-.73,10-1.25,14.56-1.6A147.1,147.1,0,0,1,82.73,124.46Z" transform="translate(0.05 0.54)"/><path class="cls-3" d="M85,58.3a143.73,143.73,0,0,1,2.54,19.54c-4.7.36-9.72.9-15,1.67a191.77,191.77,0,0,0-42.29,10.9A142.62,142.62,0,0,1,40.7,32.68l.3.12a100.67,100.67,0,0,1,24.26-6.93c3-.49,5.88-.83,8.56-1.05A142.7,142.7,0,0,1,85,58.3Z" transform="translate(0.05 0.54)"/><path class="cls-4" d="M59,.3A145.74,145.74,0,0,1,73.82,24.82,142.7,142.7,0,0,1,85,58.3a143.73,143.73,0,0,1,2.54,19.54,143.41,143.41,0,0,1-.2,19.88,147.1,147.1,0,0,1-4.61,26.74c-1.29,4.79-2.62,8.78-3.73,11.84" transform="translate(0.05 0.54)"/><path class="cls-4" d="M59,.3A146.09,146.09,0,0,0,40.7,32.68a143.55,143.55,0,0,0-8.59,77.08,146.24,146.24,0,0,0,3.16,14.7c1.29,4.79,2.62,8.78,3.73,11.84" transform="translate(0.05 0.54)"/><path class="cls-4" d="M35.5,124.3l-.23.16A84.2,84.2,0,0,0,.5,184.3" transform="translate(0.05 0.54)"/><path class="cls-4" d="M117.5,184.3a84.84,84.84,0,0,0-13-37,84.52,84.52,0,0,0-21.77-22.84l-.23-.16" transform="translate(0.05 0.54)"/><path class="cls-4" d="M41,32.8a100.67,100.67,0,0,1,24.26-6.93c3-.49,5.88-.83,8.56-1.05l.18,0" transform="translate(0.05 0.54)"/><path class="cls-4" d="M32,109.8l.11,0A184,184,0,0,1,72.78,99.32c5.12-.73,10-1.25,14.56-1.6h.12" transform="translate(0.05 0.54)"/><path class="cls-4" d="M29.66,90.64l.61-.23a191.77,191.77,0,0,1,42.29-10.9c5.26-.77,10.28-1.31,15-1.67l.46,0" transform="translate(0.05 0.54)"/><path class="cls-4" d="M117.5,186.8a16.9,16.9,0,0,0-.18-2.47c-2.34-16.25-27.56-29-58.32-29S3,168.08.68,184.33A16.9,16.9,0,0,0,.5,186.8" transform="translate(0.05 0.54)"/><path class="cls-4" d="M59,.3A145.74,145.74,0,0,1,73.82,24.82c-2.68.22-5.55.56-8.56,1.05A100.67,100.67,0,0,0,41,32.8l-.3-.12A146.09,146.09,0,0,1,59,.3Z" transform="translate(0.05 0.54)"/><path class="cls-4" d="M87.54,77.84a143.41,143.41,0,0,1-.2,19.88c-4.56.35-9.44.87-14.56,1.6a184,184,0,0,0-40.67,10.44,143.94,143.94,0,0,1-1.84-19.35,191.77,191.77,0,0,1,42.29-10.9C77.82,78.74,82.84,78.2,87.54,77.84Z" transform="translate(0.05 0.54)"/><path class="cls-4" d="M82.73,124.46A84.52,84.52,0,0,1,104.5,147.3a84.84,84.84,0,0,1,13,37l-.18,0c-2.34-16.25-27.56-29-58.32-29S3,168.08.68,184.33l-.18,0a84.2,84.2,0,0,1,34.77-59.84,146.24,146.24,0,0,1-3.16-14.7A184,184,0,0,1,72.78,99.32c5.12-.73,10-1.25,14.56-1.6A147.1,147.1,0,0,1,82.73,124.46Z" transform="translate(0.05 0.54)"/><path class="cls-4" d="M85,58.3a143.73,143.73,0,0,1,2.54,19.54c-4.7.36-9.72.9-15,1.67a191.77,191.77,0,0,0-42.29,10.9A142.62,142.62,0,0,1,40.7,32.68l.3.12a100.67,100.67,0,0,1,24.26-6.93c3-.49,5.88-.83,8.56-1.05A142.7,142.7,0,0,1,85,58.3Z" transform="translate(0.05 0.54)"/><path class="cls-4" d="M59,.3A145.74,145.74,0,0,1,73.82,24.82,142.7,142.7,0,0,1,85,58.3a143.73,143.73,0,0,1,2.54,19.54,143.41,143.41,0,0,1-.2,19.88,147.1,147.1,0,0,1-4.61,26.74c-1.29,4.79-2.62,8.78-3.73,11.84" transform="translate(0.05 0.54)"/><path class="cls-4" d="M59,.3A146.09,146.09,0,0,0,40.7,32.68a143.55,143.55,0,0,0-8.59,77.08,146.24,146.24,0,0,0,3.16,14.7c1.29,4.79,2.62,8.78,3.73,11.84" transform="translate(0.05 0.54)"/><path class="cls-4" d="M35.5,124.3l-.23.16A84.2,84.2,0,0,0,.5,184.3" transform="translate(0.05 0.54)"/><path class="cls-4" d="M117.5,184.3a84.84,84.84,0,0,0-13-37,84.52,84.52,0,0,0-21.77-22.84l-.23-.16" transform="translate(0.05 0.54)"/><path class="cls-4" d="M41,32.8a100.67,100.67,0,0,1,24.26-6.93c3-.49,5.88-.83,8.56-1.05l.18,0" transform="translate(0.05 0.54)"/><path class="cls-4" d="M32,109.8l.11,0A184,184,0,0,1,72.78,99.32c5.12-.73,10-1.25,14.56-1.6h.12" transform="translate(0.05 0.54)"/><path class="cls-4" d="M29.66,90.64l.61-.23a191.77,191.77,0,0,1,42.29-10.9c5.26-.77,10.28-1.31,15-1.67l.46,0" transform="translate(0.05 0.54)"/><path class="cls-4" d="M117.5,186.8a16.9,16.9,0,0,0-.18-2.47c-2.34-16.25-27.56-29-58.32-29S3,168.08.68,184.33A16.9,16.9,0,0,0,.5,186.8" transform="translate(0.05 0.54)"/></g><g id="Layer_2" data-name="Layer 2"><ellipse class="cls-5" cx="59.05" cy="87.84" rx="7.5" ry="10"/><ellipse class="cls-5" cx="59.05" cy="54.84" rx="7.5" ry="10"/></g></svg>